<?xml version="1.0" encoding="UTF-8"?>
<svg id="Layer_2" data-name="Layer 2" xmlns="http://www.w3.org/2000/svg" viewBox="0 0 394.5 298.08">
  <defs>
    <style>
      .cls-1 {
        fill: #ebefef;
      }

      .cls-2 {
        fill: #98bd89;
      }
    </style>
  </defs>
  <g id="Capa_1" data-name="Capa 1">
    <g>
      <path class="cls-2" d="M132.98,44.43c.23,.08,1.3,2.29,3.21,6.5l35.79,76.39c3.75,8.11,6.12,12.62,7.11,13.61,2.22,2.37,3.75,3.67,4.44,4.05,4.21,2.98,8.72,4.44,13.69,4.44h.23c5.43,0,10.4-1.84,14.91-5.51,1.68-1.53,2.75-2.68,3.29-3.36,1.15-1.61,2.14-3.13,2.91-4.66l25.46-54.52c9.48-20.26,15.29-32.57,17.36-36.78,.08,0,.54-.76,1.53-2.22,3.9-5.43,8.56-8.18,13.92-8.18,4.82,0,9.33,2.22,13.53,6.65,1.45,1.84,2.52,3.44,3.06,4.89,9.86,21.03,14.83,31.66,14.83,31.73l15.75,33.65c2.68,4.97,3.98,9.86,3.98,14.68v.61c0,6.81-2.29,13.08-6.88,18.96-1.99,2.22-3.52,3.67-4.66,4.51-2.14,1.61-3.98,2.75-5.58,3.44-4.21,2.06-8.49,3.06-12.69,3.06h-.84c-5.74,0-11.24-1.68-16.52-5.12-5.05-3.44-8.79-8.18-11.32-14.15l-21.95-46.87h-.08l-20.65,44.2c-2.22,4.89-3.9,8.03-4.89,9.48-.69,.99-1.84,2.29-3.59,4.05-1.99,1.91-3.67,3.21-5.12,3.98-4.97,2.98-10.25,4.44-15.98,4.44-7.72,0-14.53-2.6-20.49-7.88-2.07-2.06-3.52-3.75-4.36-5.05-1.3-2.06-2.45-4.21-3.36-6.35l-21.87-46.49v-.31h-.15c-.38,.92-8.11,17.36-23.09,49.32-.84,1.99-2.6,4.43-5.12,7.26-2.37,2.37-4.05,3.82-4.97,4.21-3.21,2.37-7.34,4.05-12.46,4.97-1.61,.23-2.98,.31-4.05,.31h-.76c-6.88,0-13.23-2.29-19.04-6.96-2.52-2.37-4.05-3.9-4.43-4.66-1.45-1.91-2.52-3.59-3.21-4.89-2.22-4.43-3.29-8.87-3.29-13.3v-.76c0-4.82,1.38-9.79,4.05-14.91,14.91-31.89,22.94-48.94,24.01-51.16,4.43-9.63,7.04-15.14,7.88-16.52,2.37-3.9,5.89-6.73,10.48-8.33,1.68-.46,3.29-.69,4.82-.69,5.96,0,11.01,3.44,15.22,10.25Zm-52.46,98.49c2.75,2.75,6.5,4.74,11.16,6.04,1.76,.31,3.36,.46,4.82,.46h.69c4.82,0,9.48-1.53,13.84-4.66,2.07-1.76,3.52-3.29,4.44-4.66,1.38-1.84,2.37-3.59,2.98-5.2l24.77-52.76c-2.37-5.05-3.59-7.57-3.59-7.65l-17.74,37.77c-6.58,14.15-10.09,21.56-10.48,22.33-1.99,3.44-5.12,6.04-9.41,7.65-1.83,.53-3.44,.76-4.82,.76h-.69c-4.89,0-9.18-2.06-12.77-6.12-2.52-3.29-3.82-6.88-3.82-10.71v-.08c0-2.98,.84-5.96,2.6-9.1l22.33-47.56,13.23-28.37h-.15c-3.52,0-6.65,1.84-9.4,5.43-.76,1.3-2.6,5.12-5.58,11.62-14.83,31.5-23.47,49.86-25.84,55.05-1.3,2.52-2.22,4.89-2.91,7.11-.46,2.06-.69,3.98-.69,5.89,0,6.35,2.37,11.93,7.04,16.75Zm20.65-49.47c-8.56,18.2-13.15,27.99-13.69,29.29-.38,1.15-.61,2.29-.61,3.52,0,3.13,1.38,5.74,4.05,7.95,1.91,1.22,3.67,1.84,5.43,1.84h.84c2.22,0,4.43-.92,6.58-2.75,1.3-1.45,2.06-2.68,2.29-3.67,9.71-20.42,14.6-30.97,14.83-31.58l14.83-31.58v-.15c-2.29-4.97-3.44-7.42-3.44-7.49-.31,.38-3.67,7.49-10.02,21.18l-22.56,48.02c-.76,1.07-1.68,1.61-2.75,1.61h-.38c-1.38,0-2.45-.84-3.13-2.52-.08-.53-.15-.84-.15-.92,0-.69,.54-1.99,1.53-3.98l25.31-53.98c5.51-11.7,8.26-17.59,8.26-17.66-.92-2.06-2.22-4.05-3.82-5.96-.23-.15-.31-.23-.31-.31l-23.09,49.17Zm42.36-58.19c.76,1.45,4.13,8.64,10.09,21.64,7.72,16.44,17.59,37.47,29.67,63.01,2.68,5.89,4.59,9.94,5.89,12.16,2.22,2.68,4.89,3.98,8.03,3.98s6.04-1.45,8.26-4.28c1.76-3.44,6.19-12.69,13.15-27.6,11.85-24.85,22.4-47.41,31.73-67.75,4.51-8.79,10.78-13.15,18.96-13.15,4.51,0,9.1,1.38,13.61,4.05,.99,.61,1.76,1.22,2.29,1.91h-.08c-3.13-1.38-6.12-2.06-8.79-2.06h-.53c-5.89,0-11.39,2.83-16.36,8.41-1.99,2.29-3.36,4.59-4.21,6.81-8.03,17.2-16.52,35.4-25.54,54.6l-17.66,37.32c-.61,1.15-1.76,2.6-3.36,4.21-3.29,2.98-7.19,4.43-11.55,4.43-4.82,0-9.02-1.84-12.54-5.58-1.38-1.61-2.37-3.29-2.98-4.89-9.48-19.96-17.28-36.47-23.32-49.4-5.66-11.85-12.39-26.3-20.11-43.2-.69-1.45-2.14-3.36-4.36-5.74-4.82-4.66-9.79-6.96-15.06-6.96h-.69c-2.75,0-5.66,.69-8.79,2.14v-.15c1.76-1.61,4.05-2.98,6.88-4.13,3.13-1.15,6.19-1.76,9.18-1.76,7.72,0,13.76,3.98,18.2,12Zm4.97-16.36c2.98,3.06,5.51,6.88,7.65,11.55,10.17,21.56,22.63,48.1,37.32,79.6,2.37,5.12,3.67,7.8,3.82,8.03,10.02-21.72,21.64-46.49,34.79-74.4,4.28-9.25,7.03-14.99,8.34-17.28,1.07-1.91,2.52-3.98,4.36-6.19,2.06-2.06,3.44-3.36,4.28-3.9,4.28-2.98,8.79-4.51,13.61-4.51s10.02,1.61,14.83,4.89c.76,.54,1.3,.99,1.61,1.38v.08c-3.75-1.3-7.42-1.99-10.86-1.99-8.95,0-16.13,4.36-21.41,13-1.22,1.99-2.75,5.12-4.59,9.41-8.41,18.2-18.28,39.38-29.67,63.47-8.11,17.05-12.31,25.77-12.54,26.23-.76,.92-1.61,1.38-2.6,1.38h-.38c-1.61,0-2.75-1.15-3.59-3.44-6.35-13.15-13.38-28.06-21.1-44.66-9.18-19.35-16.9-35.86-23.17-49.7-5.43-10.48-13.08-15.68-23.02-15.68-3.44,0-7.03,.69-10.78,1.99v-.08c1.53-1.45,3.29-2.6,5.28-3.59,3.82-1.76,7.57-2.68,11.24-2.68,5.96,0,11.47,2.37,16.59,7.11Zm9.63-10.25c1.68,1.91,2.98,3.59,3.98,5.05,2.68,3.98,5.05,8.18,6.96,12.69l17.36,37.16c.38,.69,3.98,8.34,10.78,22.94h.08c1.61-3.52,9.1-19.58,22.56-48.17l7.65-16.21c1.61-3.29,3.59-6.65,5.97-10.02,3.06-4.05,5.96-6.96,8.79-8.56,3.67-2.37,7.72-3.52,12.23-3.52,5.43,0,10.86,1.61,16.29,4.82,1.07,.69,2.29,1.61,3.67,2.91l.76,.99h-.15c-1.07-.61-2.68-1.22-4.82-1.91-3.59-.99-6.96-1.53-10.09-1.53h-.38c-10.32,0-18.12,5.05-23.47,15.06-.84,1.38-2.91,5.43-6.12,12.23l-20.8,44.27-12.16,25.92-22.56-48.17c-8.03-17.05-13.08-27.76-15.22-32.12-1.22-2.22-2.52-4.36-3.82-6.42-5.28-7.19-12.23-10.78-20.95-10.78h-.31c-4.97,0-9.94,1.15-14.91,3.36,0,.08-.08,.08-.15,.08v-.08c1.07-1.3,2.37-2.45,3.9-3.44,5.58-3.44,11.16-5.2,16.82-5.2,7.03,0,13.08,2.91,18.12,8.64Zm118.29,32.42l25.39,54.21c7.42,15.68,11.39,24.16,11.85,25.46,.54,1.91,.84,3.52,.84,4.97v.84c0,3.9-1.45,7.49-4.28,10.93-1.91,1.91-3.59,3.21-5.05,3.75-2.45,1.15-4.82,1.76-7.03,1.76h-.69c-3.75,0-7.34-1.3-10.71-3.98-1.68-1.61-2.75-2.83-3.13-3.67-.69-1.07-2.29-4.28-4.74-9.63-9.86-21.03-17.89-38.16-23.93-51.23-.08,0-.69,1.3-1.83,3.82l-1.84,3.82c15.98,33.95,24.09,51.39,24.47,52.23,1.07,2.37,2.06,4.21,2.98,5.51,.69,.99,1.84,2.14,3.36,3.59,4.59,3.98,9.63,5.96,15.22,5.96h.84c5.05,0,9.86-1.76,14.45-5.28,1.99-1.84,3.29-3.21,3.9-4.13,2.98-4.36,4.51-8.87,4.51-13.61v-.53c0-3.75-1.07-7.65-3.13-11.62-14.99-32.04-23.09-49.24-24.24-51.61-4.36-9.48-6.88-14.83-7.65-16.06-2.68-3.67-5.81-5.51-9.4-5.51h-.15Zm-10.09,8.95c0,.08-.08,.31-.23,.61l23.02,49.09,11.78,25.16c.15,.38,.23,.84,.23,1.3,0,1.45-.76,2.6-2.37,3.29-.38,.08-.69,.15-.92,.15h-.31c-1.61,0-2.75-1.07-3.52-3.21l-21.56-45.96-10.17-21.64c-.23,.31-1.38,2.83-3.59,7.57,17.36,37.09,26.15,55.74,26.3,55.97,2.37,5.28,3.82,8.34,4.44,9.33,1.3,1.91,3.21,3.29,5.74,4.13,.84,.15,1.61,.23,2.14,.23h.84c2.6,0,4.97-1.15,7.19-3.44,1.53-1.91,2.29-3.98,2.29-6.04v-.69c0-1.61-.61-3.59-1.84-5.89l-25.39-54.14c-6.65-14.22-10.02-21.41-10.17-21.56-1.45,1.68-2.75,3.59-3.9,5.74Z"/>
      <g>
        <path class="cls-1" d="M53.65,239.64l-23.63,42.25L6.35,239.64l.09,41.95H0v-60.4H3.48l26.54,47.82,26.54-47.82h3.44v60.4h-6.44l.09-41.95Z"/>
        <path class="cls-1" d="M66.47,260.48c0-12.58,8.79-21.89,20.67-21.89s20.5,10.27,20.76,23.5h-35.07c.87,7.83,6.74,14.01,14.31,14.01,5.96,0,11.18-4.18,13.8-10.79l5.96,2.05c-3.48,9.14-11.01,14.97-19.75,14.97-11.84,0-20.67-9.27-20.67-21.84Zm34.42-4.74c-1.74-6.35-7.18-10.88-13.75-10.88s-11.92,4.53-13.7,10.88h27.45Z"/>
        <path class="cls-1" d="M114.32,267.93h6.31c.57,5.61,6.7,8.18,11.79,8.18s11.36-2.09,11.36-6.74c0-3.83-5.92-5.13-11.75-6.44-8.88-1.87-16.45-4.05-16.45-11.84s7.18-12.49,16.71-12.49,16.27,5.79,16.93,13.79h-6.35c-.39-4.35-4.83-7.53-10.36-7.53-4.92,0-10.49,1.87-10.49,6.09,0,3.61,4.96,4.66,10.62,5.79,9.1,1.83,17.49,4.09,17.49,12.49,0,7.88-7.57,13.1-17.71,13.1s-17.49-6.05-18.1-14.4Z"/>
        <path class="cls-1" d="M174.13,281.72c-8.31-.48-14.88-6.35-14.88-13.45v-22.58h-7.05v-6.31h7.05v-18.23h6.31v18.23h7.79v6.31h-7.79v22.58c0,3.74,3.7,6.79,8.57,7.09v6.35Z"/>
        <path class="cls-1" d="M197.94,251.35c0-17.49,14.14-31.5,31.5-31.5,10.7,0,21.02,5.92,27.46,15.84l-5.13,3.79c-5.48-8.22-13.84-13.23-22.32-13.23-13.84,0-25.06,11.23-25.06,25.11s11.23,25.11,25.06,25.11c8.44,0,16.8-4.96,22.28-13.23l5.13,3.79c-6.44,9.92-16.71,15.84-27.41,15.84-17.36,0-31.5-14.01-31.5-31.5Z"/>
        <path class="cls-1" d="M263.58,260.48c0-12.58,8.83-21.89,20.67-21.89s20.8,9.31,20.8,21.89-8.88,21.84-20.8,21.84-20.67-9.27-20.67-21.84Zm35.11,0c0-8.88-6.18-15.62-14.45-15.62s-14.36,6.74-14.36,15.62,6.14,15.62,14.36,15.62,14.45-6.74,14.45-15.62Z"/>
        <path class="cls-1" d="M317.78,281.59h-6.35v-42.12h6.31v2.52c2.74-2.18,6.14-3.39,10.01-3.39,1.09,0,2.87,.26,5.05,.7v6.57c-2.65-.7-4.22-1-5-1-5.61,0-10.01,4.48-10.01,9.96v26.76Z"/>
        <path class="cls-1" d="M345.48,298.08h-6.31v-58.57h6.31v4.96c3.39-3.66,8.09-5.83,13.4-5.83,11.14,0,19.41,9.4,19.41,21.97s-8.27,21.84-19.41,21.84c-5.31,0-10.01-2.13-13.4-5.7v21.32Zm26.76-37.46c0-8.92-5.7-15.62-13.36-15.62s-13.27,6.7-13.27,15.62,5.7,15.62,13.27,15.62,13.36-6.74,13.36-15.62Z"/>
        <path class="cls-1" d="M386.45,277.24c0-2.18,1.87-4,4.09-4s3.96,1.83,3.96,4-1.79,4.05-3.96,4.05-4.09-1.87-4.09-4.05Z"/>
      </g>
    </g>
  </g>
</svg>