<?xml version="1.0" encoding="utf-8"?>
<!-- Generator: Adobe Illustrator 22.1.0, SVG Export Plug-In . SVG Version: 6.00 Build 0)  -->
<svg version="1.1" id="Capa_1" xmlns="http://www.w3.org/2000/svg" xmlns:xlink="http://www.w3.org/1999/xlink" x="0px" y="0px"
	 viewBox="0 0 400 182" style="enable-background:new 0 0 400 182;" xml:space="preserve">
<style type="text/css">
	.st0{fill:#FFFFFF;}
	.st1{fill:url(#SVGID_1_);}
</style>
<g>
	<polyline class="st0" points="140.3,106.4 140.3,29.5 209.6,29.5 209.6,51.3 175.1,51.3 175.1,69.2 206.6,69.2 206.6,87.3 
		175.1,87.3 175.1,106.4 	"/>
	<polygon class="st0" points="40.6,153.1 40.1,142.5 35.9,153.1 34.5,153.1 30.4,142.6 29.9,153.1 27.3,153.1 28.2,137.5 31,137.5 
		35.2,148.3 39.4,137.5 42.3,137.5 43.2,153.1 	"/>
	<path class="st0" d="M54.6,146v7.1h-2.4l-0.1-1.6c-0.7,1.2-1.8,1.8-3,1.8c-2,0-3.4-1.4-3.4-3.5c0-2.2,1.7-3.6,4.2-3.6
		c0.7,0,1.4,0.1,2.2,0.3v-0.2c0-1.5-0.9-2.4-2.4-2.4c-0.9,0-1.7,0.3-2.3,0.9l-1.1-1.7c1.1-1,2.3-1.5,4-1.5
		C52.9,141.6,54.6,143.3,54.6,146 M52.2,148.4c-0.6-0.1-1.3-0.2-1.9-0.2c-1.2,0-1.9,0.6-1.9,1.6c0,0.9,0.5,1.5,1.5,1.5
		C51.1,151.3,52.1,150.2,52.2,148.4"/>
	<polygon class="st0" points="61.3,148.3 60.5,148.3 60.5,153.1 58,153.1 58,136.7 60.5,136.7 60.5,146 61.3,146 64.6,141.8 
		67.7,141.8 63.3,147.1 67.9,153.1 64.8,153.1 	"/>
	<path class="st0" d="M69.7,138.3c0-1,0.6-1.7,1.5-1.7c0.9,0,1.5,0.7,1.5,1.7c0,1-0.6,1.7-1.5,1.7C70.3,140,69.7,139.3,69.7,138.3
		 M70,141.8h2.5v11.3H70V141.8z"/>
	<path class="st0" d="M85.4,146v7.1H83v-6.7c0-1.5-0.9-2.4-2.3-2.4c-1.4,0-2.3,1-2.3,2.4v6.7h-2.5v-11.3h2.4l0,1.4
		c0.7-1.1,1.9-1.6,3.2-1.6C83.9,141.6,85.4,143.4,85.4,146"/>
	<path class="st0" d="M98.7,141.8V152c0,3.6-2.3,5.9-5.8,5.9c-1.8,0-3.3-0.5-4.4-1.4l0.5-2.2c1.1,0.9,2.4,1.2,3.8,1.2
		c2,0,3.4-1.4,3.4-3.5v-0.5c-0.7,1.2-1.8,1.8-3.3,1.8c-2.7,0-4.7-2.4-4.7-5.9c0-3.5,2-5.8,4.7-5.8c1.5,0,2.6,0.7,3.3,1.9l0.1-1.7
		H98.7z M96.2,147.4c0-2.1-1.1-3.4-2.7-3.4c-1.6,0-2.7,1.4-2.7,3.4c0,2.1,1.1,3.4,2.7,3.4C95.1,150.9,96.2,149.5,96.2,147.4"/>
	<polygon class="st0" points="117.2,150.7 117.2,153.1 107.8,153.1 107.8,137.6 117,137.6 117,140 110.4,140 110.4,144 116.4,144 
		116.4,146.5 110.4,146.5 110.4,150.7 	"/>
	<path class="st0" d="M129.8,146v7.1h-2.5v-6.7c0-1.5-0.9-2.4-2.3-2.4c-1.4,0-2.3,1-2.3,2.4v6.7h-2.5v-11.3h2.4l0,1.4
		c0.7-1.1,1.9-1.6,3.2-1.6C128.3,141.6,129.8,143.4,129.8,146"/>
	<path class="st0" d="M142.3,148.5h-7.1c0.2,1.6,0.9,2.6,2.4,2.6c1,0,1.8-0.5,2.4-1.3l1.9,1.1c-0.9,1.5-2.4,2.5-4.3,2.5
		c-3,0-5-2.3-5-5.8c0-3.6,2-5.9,4.9-5.9c2.9,0,4.9,2.3,4.9,5.7C142.4,147.7,142.4,148.1,142.3,148.5 M135.2,146.5h4.6
		c-0.2-1.7-1-2.7-2.3-2.7C136.2,143.8,135.4,144.8,135.2,146.5"/>
	<path class="st0" d="M151.3,141.6l-0.2,2.6c-2,0-3.4,1.1-3.4,2.8v6.1h-2.5v-11.3h2.4l0,1.5C148.4,142.2,149.7,141.6,151.3,141.6"/>
	<path class="st0" d="M163.1,141.8V152c0,3.6-2.3,5.9-5.8,5.9c-1.8,0-3.3-0.5-4.4-1.4l0.5-2.2c1.1,0.9,2.4,1.2,3.8,1.2
		c2,0,3.4-1.4,3.4-3.5v-0.5c-0.7,1.2-1.8,1.8-3.3,1.8c-2.7,0-4.7-2.4-4.7-5.9c0-3.5,2-5.8,4.7-5.8c1.5,0,2.6,0.7,3.3,1.9l0.1-1.7
		H163.1z M160.6,147.4c0-2.1-1.1-3.4-2.7-3.4c-1.6,0-2.7,1.4-2.7,3.4c0,2.1,1.1,3.4,2.7,3.4C159.5,150.9,160.6,149.5,160.6,147.4"/>
	<path class="st0" d="M166.5,157.6l0.3-2.3c0.2,0.1,0.5,0.2,0.8,0.2c0.8,0,1.1-0.6,1.5-1.4l0.5-1.2l-4.2-11.1h2.7l2.8,8l2.6-8h2.7
		l-4.6,12.6c-0.8,2.2-1.6,3.5-3.5,3.5C167.4,157.9,166.9,157.8,166.5,157.6"/>
	<path class="st0" d="M183.2,151.4l1-2c1.2,1.1,2.4,1.5,3.7,1.5c1.7,0,2.7-0.7,2.7-1.9c0-1.3-1.1-1.8-2.8-2.3l-0.8-0.3
		c-2.2-0.7-3.9-1.8-3.9-4.3c0-2.8,2-4.7,5-4.7c1.7,0,3.3,0.6,4.6,1.8l-1.1,2.1c-1-0.9-2.1-1.4-3.4-1.4c-1.4,0-2.4,0.7-2.4,1.8
		c0,1.2,1.1,1.7,2.4,2.1l0.8,0.3c2.1,0.6,4.3,2,4.3,4.7c0,2.8-2.1,4.6-5.2,4.6C186.2,153.3,184.4,152.6,183.2,151.4"/>
	<path class="st0" d="M195.6,147.4c0-3.5,2.1-5.9,5.3-5.9c3.1,0,5.3,2.3,5.3,5.9c0,3.5-2.1,5.9-5.3,5.9
		C197.7,153.3,195.6,151,195.6,147.4 M203.6,147.4c0-2.1-1.1-3.4-2.7-3.4c-1.6,0-2.7,1.4-2.7,3.4c0,2.1,1.1,3.4,2.7,3.4
		C202.5,150.9,203.6,149.5,203.6,147.4"/>
	<rect x="209" y="136.7" class="st0" width="2.5" height="16.4"/>
	<path class="st0" d="M224.1,141.8v11.3h-2.4l0-1.4c-0.7,1-1.8,1.6-3,1.6c-2.2,0-3.7-1.8-3.7-4.4v-7.1h2.5v6.7
		c0,1.4,0.9,2.4,2.1,2.4c1.3,0,2.1-1,2.1-2.4v-6.7H224.1z"/>
	<path class="st0" d="M233.7,150.5v2.3c-0.7,0.4-1.6,0.5-2.5,0.5c-1.8,0-3-1.4-3-3.6v-5.6h-1.6v-2.3h1.6v-3.3h2.5v3.3h2.9v2.3h-2.9
		v5c0,1,0.5,1.7,1.4,1.7C232.6,150.9,233.1,150.8,233.7,150.5"/>
	<path class="st0" d="M236.1,138.3c0-1,0.6-1.7,1.5-1.7c0.9,0,1.5,0.7,1.5,1.7c0,1-0.6,1.7-1.5,1.7
		C236.7,140,236.1,139.3,236.1,138.3 M236.3,141.8h2.5v11.3h-2.5V141.8z"/>
	<path class="st0" d="M241.6,147.4c0-3.5,2.1-5.9,5.3-5.9c3.1,0,5.3,2.3,5.3,5.9c0,3.5-2.1,5.9-5.3,5.9
		C243.8,153.3,241.6,151,241.6,147.4 M249.6,147.4c0-2.1-1.1-3.4-2.7-3.4c-1.6,0-2.7,1.4-2.7,3.4c0,2.1,1.1,3.4,2.7,3.4
		C248.5,150.9,249.6,149.5,249.6,147.4"/>
	<path class="st0" d="M264.6,146v7.1h-2.5v-6.7c0-1.5-0.9-2.4-2.3-2.4c-1.4,0-2.3,1-2.3,2.4v6.7H255v-11.3h2.4l0,1.4
		c0.7-1.1,1.9-1.6,3.2-1.6C263,141.6,264.6,143.4,264.6,146"/>
	<path class="st0" d="M267.5,152l0.9-1.7c0.9,0.6,1.9,0.8,2.8,0.8c0.9,0,1.5-0.4,1.5-1.1c0-0.7-0.7-1.1-1.7-1.4l-0.8-0.3
		c-1.7-0.5-2.8-1.2-2.8-3c0-2.2,1.5-3.7,3.9-3.7c1.5,0,2.7,0.4,3.7,1.1l-1,1.9c-0.8-0.5-1.6-0.7-2.5-0.7c-0.9,0-1.5,0.4-1.5,1
		c0,0.7,0.6,1,1.5,1.2l0.8,0.3c1.7,0.5,3,1.4,3,3.4c0,2.1-1.6,3.6-4.1,3.6C269.7,153.3,268.4,152.9,267.5,152"/>
	<polygon class="st0" points="292.9,140 288.8,140 288.8,153.1 286.2,153.1 286.2,140 282.1,140 282.1,137.6 292.9,137.6 	"/>
	<path class="st0" d="M293.3,147.4c0-3.5,2.1-5.9,5.3-5.9c3.1,0,5.3,2.3,5.3,5.9c0,3.5-2.1,5.9-5.3,5.9
		C295.4,153.3,293.3,151,293.3,147.4 M301.2,147.4c0-2.1-1.1-3.4-2.7-3.4c-1.6,0-2.7,1.4-2.7,3.4c0,2.1,1.1,3.4,2.7,3.4
		C300.1,150.9,301.2,149.5,301.2,147.4"/>
	<path class="st0" d="M316.6,141.8V152c0,3.6-2.3,5.9-5.8,5.9c-1.8,0-3.3-0.5-4.4-1.4l0.5-2.2c1.1,0.9,2.4,1.2,3.8,1.2
		c2,0,3.4-1.4,3.4-3.5v-0.5c-0.7,1.2-1.8,1.8-3.3,1.8c-2.7,0-4.7-2.4-4.7-5.9c0-3.5,2-5.8,4.7-5.8c1.5,0,2.6,0.7,3.3,1.9l0.1-1.7
		H316.6z M314.1,147.4c0-2.1-1.1-3.4-2.7-3.4c-1.6,0-2.7,1.4-2.7,3.4c0,2.1,1.1,3.4,2.7,3.4C313,150.9,314.1,149.5,314.1,147.4"/>
	<path class="st0" d="M329.2,148.5h-7.1c0.2,1.6,0.9,2.6,2.4,2.6c1,0,1.8-0.5,2.4-1.3l1.9,1.1c-0.9,1.5-2.4,2.5-4.3,2.5
		c-3,0-5-2.3-5-5.8c0-3.6,2-5.9,4.9-5.9c2.9,0,4.9,2.3,4.9,5.7C329.3,147.7,329.2,148.1,329.2,148.5 M322.1,146.5h4.6
		c-0.2-1.7-1-2.7-2.3-2.7C323,143.8,322.3,144.8,322.1,146.5"/>
	<path class="st0" d="M338.2,150.5v2.3c-0.7,0.4-1.6,0.5-2.5,0.5c-1.8,0-3-1.4-3-3.6v-5.6H331v-2.3h1.6v-3.3h2.5v3.3h2.9v2.3h-2.9v5
		c0,1,0.5,1.7,1.4,1.7C337,150.9,337.6,150.8,338.2,150.5"/>
	<path class="st0" d="M350.3,146v7.1h-2.5v-6.7c0-1.5-0.9-2.4-2.3-2.4c-1.4,0-2.3,1-2.3,2.4v6.7h-2.5v-16.4h2.5v6.4
		c0.7-1.1,1.9-1.6,3.2-1.6C348.7,141.6,350.3,143.4,350.3,146"/>
	<path class="st0" d="M362.8,148.5h-7.1c0.2,1.6,0.9,2.6,2.4,2.6c1,0,1.8-0.5,2.4-1.3l1.9,1.1c-0.9,1.5-2.4,2.5-4.3,2.5
		c-3,0-5-2.3-5-5.8c0-3.6,2-5.9,4.9-5.9c2.9,0,4.9,2.3,4.9,5.7C362.9,147.7,362.8,148.1,362.8,148.5 M355.7,146.5h4.6
		c-0.2-1.7-1-2.7-2.3-2.7C356.7,143.8,355.9,144.8,355.7,146.5"/>
	<path class="st0" d="M371.7,141.6l-0.2,2.6c-2,0-3.4,1.1-3.4,2.8v6.1h-2.5v-11.3h2.4l0,1.5C368.9,142.2,370.1,141.6,371.7,141.6"/>
	<polygon class="st0" points="27.3,29.5 57.1,29.5 81.8,77.4 105.9,29.5 135.7,29.5 135.7,128.2 105.9,128.2 105.9,75.5 87.7,109.9 
		75.5,109.9 57.1,75.5 57.1,128.2 27.3,128.2 	"/>
	<linearGradient id="SVGID_1_" gradientUnits="userSpaceOnUse" x1="140.2778" y1="76.1148" x2="371.7316" y2="76.1148">
		<stop  offset="0" style="stop-color:#FE8100"/>
		<stop  offset="1" style="stop-color:#FE5300"/>
	</linearGradient>
	<path class="st1" d="M360.5,37.2h11.3v-4.7h-11.6v-8.5h-14.3v5.4h-50.1c-4.5,0-21.9-0.4-27.7-0.3c-6.1,0-12,0-18.1,0
		c-11.8,0-21.1,0.8-28.1,6.2c-6.9,5.4-10.4,13.4-10.4,23.9c0,6.8,2.2,12.8,6.5,18c4.3,5.2,10.3,9,18.1,11.3c6.3,1.8,11,3.3,14.2,4.6
		c3.2,1.2,5.3,2.4,6.3,3.4c1.1,1,1.6,2.2,1.6,3.5c0,2-1,3.5-2.9,4.5c-2,1-5,1.8-9.2,1.8c-7.7,0-36.3,0.1-46.1,0.1h-59.6v21.8h59.6
		h13.2h33.4c13.5,0,23.7-0.7,30.6-6.4c6.9-5.7,10.3-13.8,10.3-24.5c0-7.7-2.6-14.2-7.7-19.7c-5.2-5.5-12.8-9.6-22.8-12.3
		c-6.4-1.8-10.6-3.3-12.7-4.5c-2.1-1.2-3.1-2.7-3.1-4.4c0-3.4,3.1-5.4,9.4-5.4c3.7,0,7,0.2,11,0.2H273h20.5v76.9h33.6V51.3h18.7v5.4
		h14.3v-8.5h11.6v-4.7h-11.3v-3.1V37.2z"/>
</g>
</svg>
